<svg width="70" height="118" xmlns="http://www.w3.org/2000/svg" xml:space="preserve" version="1.1">
 <style type="text/css">.st0{fill:none;}
	.st1{fill:#272525;}
	.st2{fill:#262425;}
	.st3{fill:#262425;stroke:#272525;stroke-width:1.2074;}
	.st4{fill:none;stroke:#272525;stroke-width:3.6222;}</style>
 <g>
  <title>Layer 1</title>
  <g >
   <rect id="svg_2" height="78" width="66.5" class="st0" y="22.30187" x="1.87167"/>
   <rect id="svg_3" height="5.1" width="36.3" class="st2" y="59.30187" x="9.47167"/>
   <path id="svg_4" d="m59.67167,51.70187l-24.7,0l0,-3.7l24.7,0l0,3.7zm-25.8,4.3l-8.6,0l0,-11.3l3.4,0c1.9,0 2.2,-1 2.2,-3.1l0,-5.6l3.1,0l-0.1,20l0,0zm26.8,-9.1l-25.7,0l0,-11.9l-5.2,0l0,6.6c0,2 -0.1,2 -1.1,2l-4.4,0l0,13.4l10.7,0l0,-4.3l25.7,0l0,-5.8z" class="st3"/>
   <path id="svg_5" d="m2.57167,23.00187l-0.2,19.1c-1.6,39.4 32.1,56.3 32.1,56.3l0.9,0c0,0 33.7,-16.8 32.1,-56.3l-0.2,-20.1l-64.7,0l0,1z" class="st4"/>
  </g>
  <g>
   <path id="svg_7" d="m7.30214,1.7l8.5,0l0,2.1l-6,0l0,4.4l5.6,0l0,2.1l-5.6,0l0,5l6.2,0l0,2.1l-8.7,0l0,-15.7z" class="st1"/>
   <path id="svg_8" d="m18.40214,1.7l3.1,0l4.6,11.7l0,0l0,-11.7l2.4,0l0,15.7l-3.1,0l-4.6,-12l0,0l0,12l-2.4,0l0,-15.7z" class="st1"/>
   <path id="svg_9" d="m33.40214,13.1c0,1.4 0.4,2.9 2.1,2.9c1.6,0 2.2,-1.3 2.2,-2.8c0,-1.9 -0.6,-2.9 -2.5,-2.9l-1,0l0,-1.8l0.9,0c1.7,0 2.2,-1.1 2.2,-2.7c0,-1.1 -0.5,-2.2 -1.8,-2.2c-1.5,0 -2,1.3 -2,2.7l-2.4,0c0,-2.9 1.5,-4.5 4.5,-4.5c1.9,0 4.2,0.9 4.2,4c0,1.6 -0.9,3.2 -2.5,3.4l0,0.1c1.6,0.1 2.8,1.4 2.8,3.6c0,3.1 -1.5,4.8 -4.8,4.8c-2.8,0 -4.4,-1.4 -4.4,-4.6l2.5,0z" class="st1"/>
   <path id="svg_10" d="m42.00214,13c0,-2.3 1.1,-3.6 2.7,-3.9l0,0c-1.3,-0.5 -2.2,-1.5 -2.2,-3.4c0,-2.4 1.6,-3.9 4.2,-3.9c2.6,0 4.2,1.5 4.2,3.9c0,1.9 -0.8,2.9 -2.2,3.4l0,0c1.5,0.3 2.7,1.6 2.7,3.9c0,3.1 -1.5,4.7 -4.7,4.7s-4.7,-1.6 -4.7,-4.7zm4.7,2.9c1.8,0 2.2,-1.3 2.2,-2.9c0,-1.7 -0.4,-2.9 -2.2,-2.9c-1.8,0 -2.2,1.3 -2.2,2.9c0,1.6 0.4,2.9 2.2,2.9zm0,-7.6c1.6,0 2,-1.1 2,-2.4c0,-1.2 -0.4,-2.3 -2,-2.3c-1.6,0 -2,1.1 -2,2.3c0,1.3 0.4,2.4 2,2.4z" class="st1"/>
   <path id="svg_11" d="m53.10214,13c0,-2.3 1.1,-3.6 2.7,-3.9l0,0c-1.3,-0.5 -2.2,-1.5 -2.2,-3.4c0,-2.4 1.6,-3.9 4.2,-3.9c2.6,0 4.2,1.5 4.2,3.9c0,1.9 -0.8,2.9 -2.2,3.4l0,0c1.5,0.3 2.7,1.6 2.7,3.9c0,3.1 -1.5,4.7 -4.7,4.7s-4.7,-1.6 -4.7,-4.7zm4.7,2.9c1.8,0 2.2,-1.3 2.2,-2.9c0,-1.7 -0.4,-2.9 -2.2,-2.9c-1.8,0 -2.2,1.3 -2.2,2.9c0,1.6 0.4,2.9 2.2,2.9zm0,-7.6c1.6,0 2,-1.1 2,-2.4c0,-1.2 -0.4,-2.3 -2,-2.3c-1.6,0 -2,1.1 -2,2.3c0,1.3 0.4,2.4 2,2.4z" class="st1"/>
  </g>
  <text font-weight="bold" font-size="18" fill="#272525" font-family="sans-serif" y="116" x="14">4441</text>
 </g>
</svg>
