<svg width="70" height="118" xmlns="http://www.w3.org/2000/svg" xml:space="preserve" version="1.1">
 <style type="text/css">.st0{fill:#272525;}
	.st1{fill:none;stroke:#272525;stroke-width:3.6222;}</style>

 <g>
  <title>Layer 1</title>
  <g id="svg_1">
   <path id="svg_2" d="m22.42882,55.1l0,-7.1c-1.1,0.6 -2,1.1 -3,1.7c-0.5,-0.7 -1,-1.3 -1.4,-2l0.4,-1c0.8,-0.6 1.7,-1 2.7,-1.6c-2.2,-1.1 -4.2,-2.2 -6.2,-3.4c-0.7,-0.4 -0.7,-0.8 -0.3,-1.4c0.2,-0.3 0.3,-0.6 0.5,-0.9c0.2,-0.3 0.3,-0.5 0.6,-0.9c2.3,1.3 4.5,2.5 6.9,3.9c0,-1 0,-2 0,-2.9c0,-0.6 0.2,-0.9 0.9,-0.9c2.4,-0.1 2.4,-0.1 2.4,2.3l0,1.5c2.1,-1.2 4,-2.3 6.2,-3.5c-1.2,-0.7 -2.3,-1.3 -3.3,-1.8l0,-0.2c1.7,-2.9 1.3,-2.9 4,-1c0.1,0.1 0.3,0.1 0.6,0.2l0,-4l0,-1.8c0,-2.5 0.6,-2.9 3.2,-2.1l0,8c0.9,-0.5 1.7,-0.9 2.5,-1.4s1.3,-0.5 1.5,0.5l0.4,0.7c0.4,0.6 0.4,1.1 -0.4,1.5c-0.7,0.4 -1.4,0.8 -2.3,1.4c2.1,1.2 3.9,2.3 6,3.5c0,-1 0,-1.9 0,-2.7s0.3,-1.1 1.1,-1.1c2.7,0.1 2.4,-0.4 2.4,2.4c0,0.4 0,0.9 0,1.4c2.3,-1.3 4.4,-2.5 6.7,-3.8c0.5,0.7 1,1.4 1.4,2.2c0.1,0.2 -0.2,0.7 -0.5,0.9c-1.8,1.1 -3.7,2.1 -5.6,3.2c-0.2,0.1 -0.3,0.2 -0.6,0.4c0.8,0.5 1.4,0.9 2.1,1.2c0.9,0.4 1.1,0.9 0.5,1.7c-0.3,0.4 -0.5,0.9 -0.9,1.5c-1.1,-0.6 -2,-1.1 -3.1,-1.7l0,7c0.9,-0.5 1.7,-1 2.5,-1.5l0.7,0c0.4,0.6 0.7,1.3 1,2l-0.4,0.7c-0.7,0.5 -1.5,0.9 -2.5,1.5c1.7,1 3.2,2 4.8,2.9c2.3,1.3 2.4,1.2 0.8,3.4l-0.4,0.5c-2.1,-1.3 -4.3,-2.6 -6.7,-4c0,1.1 0,1.9 0,2.8c0,0.7 -0.3,1 -1,1c-3,0 -2.5,0.2 -2.5,-2.4l0,-1.4c-2,1.2 -3.9,2.3 -5.9,3.5c0.9,0.6 1.6,1.2 2.4,1.6c0.7,0.4 0.6,0.7 0.3,1.2c-0.9,1.8 -0.9,1.8 -2.7,0.8c-0.5,-0.3 -1.1,-0.6 -1.8,-0.9c0,2.4 0,4.6 0,6.8c0,0.5 -0.2,1.3 -0.4,1.3c-0.8,0.1 -1.7,0 -2.5,-0.1c-0.2,0 -0.3,-0.6 -0.3,-0.9c0,-1.9 0,-3.8 0,-5.7c0,-0.3 0,-0.7 -0.1,-1.2c-1.1,0.6 -2.1,1.1 -3.1,1.7c-0.5,-0.8 -1.1,-1.7 -1.7,-2.6c1.2,-0.7 2.2,-1.3 3.4,-2c-2.1,-1.2 -4.1,-2.3 -6.2,-3.6c0,1.1 0,1.9 0,2.7c0.1,0.9 -0.4,1.2 -1.2,1.2l-0.8,0c-1,0.1 -1.4,-0.3 -1.4,-1.3c0.1,-0.8 0,-1.5 0,-2.5c-2.4,1.4 -4.6,2.7 -6.9,4l-0.2,-0.2c-1.4,-2.4 -1.4,-2.4 0.9,-3.8c0.8,-0.5 1.6,-0.9 2.4,-1.3c0.7,-0.4 1.5,-0.9 2.4,-1.4c-1,-0.5 -1.8,-1 -2.7,-1.4c-0.6,-0.3 -0.6,-0.6 -0.3,-1.1c1.2,-2.2 1.2,-2.2 3.3,-0.9c0.7,0.2 1,0.5 1.4,0.7m3.4,-3.4c0,1.6 0,3.1 0,4.7c0,0.4 0.3,0.8 0.6,1c2.5,1.5 5.1,3 7.7,4.4c0.7,0.4 1.4,0.4 2.1,0c2.4,-1.5 4.9,-2.8 7.3,-4.3c0.3,-0.2 0.7,-0.8 0.7,-1.2c0.1,-3.1 0.1,-6.3 0,-9.4c0,-0.4 -0.3,-0.9 -0.6,-1.1c-2.6,-1.6 -5.2,-3.1 -7.8,-4.7c-0.7,-0.4 -1.2,-0.1 -1.7,0.2c-2.6,1.5 -5.2,3 -7.8,4.6c-0.3,0.2 -0.5,0.7 -0.6,1c0,1.5 0.1,3.2 0.1,4.8" class="st0"/>
   <path id="svg_3" d="m2.62882,22l-0.2,20.1c-1.6,39.4 32.1,56.3 32.1,56.3l0.9,0c0,0 33.7,-16.8 32.1,-56.3l-0.2,-20.1l-63.4,0l-1.3,0z" class="st1"/>
  </g>
  <g id="svg_4">
   <path id="svg_5" d="m9.71451,2.83518l8.5,0l0,2.1l-6,0l0,4.4l5.6,0l0,2.1l-5.6,0l0,5l6.2,0l0,2.1l-8.7,0l0,-15.7z" class="st0"/>
   <path id="svg_6" d="m20.81451,2.83518l3.1,0l4.6,11.7l0,0l0,-11.7l2.4,0l0,15.7l-3.1,0l-4.6,-12l0,0l0,12l-2.4,0l0,-15.7z" class="st0"/>
   <path id="svg_7" d="m33.41451,14.33518l2.3,0l0,0.4c0,1.2 0.6,2.2 2,2.2c1.7,0 2.2,-1.7 2.2,-3.5s-0.5,-3.3 -2.1,-3.3c-1.1,0 -1.8,0.6 -2,1.4l-2.1,-0.1l0.8,-8.2l7.5,0l0,2l-5.6,0l-0.5,4.1l0,0c0.7,-0.7 1.6,-1.2 2.6,-1.2c3.3,0 4.1,2.8 4.1,5.1c0,3.1 -1.4,5.5 -4.8,5.5c-2.8,0 -4.4,-1.4 -4.4,-4.2c0,0 0,-0.2 0,-0.2z" class="st0"/>
   <path id="svg_8" d="m48.31451,18.53518l0,-11.3l-3.2,0l0,-1.6l0.2,0c1.5,0 3.2,-0.4 3.7,-2.3l0,-0.3l1.8,0l0,15.6l-2.5,-0.1l0,0z" class="st0"/>
   <path id="svg_9" d="m58.41451,18.53518l0,-11.3l-3.2,0l0,-1.6l0.2,0c1.5,0 3.2,-0.4 3.7,-2.3l0,-0.3l1.8,0l0,15.6l-2.5,-0.1l0,0z" class="st0"/>
  </g>
  <text font-style="normal" font-weight="bold"  font-family="sans-serif" font-size="18" id="svg_10" y="116" x="18" stroke-width="0" fill="#272525">221</text>
 </g>
</svg>
