<svg width="70" height="118" xmlns="http://www.w3.org/2000/svg" xml:space="preserve" version="1.1">
 <style type="text/css">.st0{fill:#272525;}
	.st1{fill:none;stroke:#272525;stroke-width:3.6222;}
	.st2{fill:#272525;}</style>

 <g>
  <title>Layer 1</title>
  <g id="svg_1">
   <path id="svg_2" d="m33.5679,80c-2.2,0 -4.3,0 -6.5,0c-0.8,0 -1.6,-0.2 -2.3,-0.8c-0.9,-0.9 -1,-1.9 -0.7,-3.1c0.3,-1.3 0.7,-2.7 1,-4c0.4,-1.4 0.7,-2.8 1.1,-4.2c0.2,-0.9 0.5,-1.8 0.7,-2.8c0.4,-1.5 0.7,-2.9 1.1,-4.4c0.2,-0.8 0.4,-1.5 0.6,-2.3c0.4,-1.6 0.7,-3.2 0.6,-4.8c0,-0.6 0,-1.3 0,-1.9c0,-0.3 -0.1,-0.6 -0.3,-0.9c-0.3,-0.6 -0.7,-1.3 -1.1,-1.9c-0.2,-0.3 -0.2,-0.4 0.2,-0.6c0.3,-0.2 0.7,-0.4 1,-0.6c0.2,-0.2 0.4,-0.1 0.6,0.2c0.3,0.6 0.7,1.1 1,1.7c0.1,0.2 0.3,0.4 0.4,0.6c0.1,0.3 0.3,0.7 0.3,1c0,1.5 0,3 0,4.4c0,0.7 -0.1,1.4 -0.3,2.1c-0.4,1.5 -0.8,3 -1.2,4.5c0,0.2 -0.1,0.4 -0.2,0.5c-0.1,0.3 0,0.4 0.3,0.4c0.1,0 0.2,0 0.3,0c2.1,0 4.2,0 6.3,0c0.1,0 0.3,0 0.4,0c0.4,0 0.5,-0.2 0.4,-0.6s-0.3,-0.9 -0.4,-1.3c-0.4,-1.3 -0.7,-2.7 -1.1,-4c-0.3,-1.1 -0.1,-2.2 -0.1,-3.3c0,-0.9 0,-1.8 0,-2.7c0,-0.5 0.1,-0.9 0.4,-1.3c0.5,-0.7 0.9,-1.5 1.3,-2.2c0.1,-0.3 0.3,-0.3 0.5,-0.1c0.4,0.2 0.7,0.5 1.1,0.7c0.2,0.1 0.3,0.3 0.2,0.5c-0.4,0.7 -0.8,1.4 -1.2,2.1c-0.1,0.2 -0.2,0.5 -0.2,0.7c0,1.4 0,2.7 0,4.1c0,0.2 0,0.3 0,0.5c0.2,0.8 0.4,1.6 0.6,2.3c0.2,0.6 0.4,1.3 0.5,1.9c0.3,1 0.5,2 0.8,2.9c0.2,0.8 0.4,1.6 0.6,2.3c0.3,1.3 0.7,2.6 1,3.8c0.2,0.8 0.4,1.6 0.6,2.4c0.3,1.3 0.7,2.5 1,3.7c0.2,0.7 0.3,1.4 0.1,2.1c-0.2,0.9 -0.8,1.6 -1.7,1.8c-0.6,0.1 -1.1,0.2 -1.7,0.2c-2,0.5 -4,0.4 -6,0.4l0,0z" class="st0"/>
   <path id="svg_3" d="m38.3679,42.9c-1.4,0 -2.6,0.3 -3.9,0.8c-0.3,0.1 -0.7,0.3 -1,0.4c-0.3,0.1 -0.5,0 -0.5,-0.3c0,-0.5 0,-1 0,-1.5c0,-0.2 0.1,-0.4 0.3,-0.5c0.5,-0.1 1,-0.3 1.5,-0.5c1.6,-0.5 3.3,-0.5 5,-0.3c1,0.1 2,0.4 2.9,0.7c1.1,0.4 2.2,0.8 3.3,1.2s2.3,0.5 3.5,0.5c1.5,0.1 3,-0.3 4.4,-0.9c0.1,-0.1 0.3,-0.2 0.4,-0.3s0.3,-0.1 0.4,-0.1s0.1,0.2 0.1,0.3c0,0.4 0,0.9 0,1.3c0,0.4 -0.1,0.6 -0.5,0.7c-2.3,0.9 -4.7,1.3 -7.1,0.8c-1.3,-0.2 -2.5,-0.6 -3.7,-1.1c-1.2,-0.6 -2.4,-1 -3.6,-1.2c-0.3,0.1 -0.9,0 -1.5,0" class="st0"/>
   <path id="svg_4" d="m49.5679,40.7c-1.2,0 -2.3,-0.2 -3.4,-0.4c-1.1,-0.3 -2,-0.7 -3,-1.1c-2.2,-1 -4.6,-1.4 -7,-0.8c-0.8,0.2 -1.5,0.5 -2.3,0.7c-0.1,0 -0.2,0.1 -0.3,0.2c-0.2,0.1 -0.4,0 -0.4,-0.2c0,-0.5 0,-1.1 0,-1.6c0,-0.1 0.1,-0.3 0.2,-0.4c0.9,-0.4 1.8,-0.7 2.8,-0.9c1.6,-0.3 3.1,-0.2 4.6,0c0.5,0.1 1,0.2 1.5,0.4c1,0.3 1.9,0.7 2.8,1.1c1.9,0.8 4,1.1 6.1,0.8c1.2,-0.2 2.3,-0.5 3.3,-1.1c0.1,-0.1 0.3,-0.1 0.4,-0.1c0.1,0.2 0.1,0.3 0.1,0.5c0,0.4 0,0.8 0,1.2s-0.1,0.6 -0.5,0.7c-1.5,0.7 -3.2,1 -4.9,1" class="st0"/>
   <path id="svg_5" d="m49.8679,50.5c-1.6,-0.1 -3,-0.2 -4.3,-0.7c-0.9,-0.3 -1.7,-0.6 -2.6,-1c-0.4,-0.1 -0.5,-0.4 -0.5,-0.8s0,-0.7 0,-1.1s0.1,-0.5 0.5,-0.4c0.5,0.2 0.9,0.4 1.4,0.5c1.4,0.6 2.7,1.1 4.2,1.2c1.2,0.1 2.3,0 3.5,-0.2c0.9,-0.2 1.8,-0.4 2.6,-1c0.1,-0.1 0.2,-0.1 0.3,0c0.1,0 0.1,0.2 0.1,0.3c0,0.5 0,1.1 0,1.6c0,0.2 -0.2,0.4 -0.3,0.5c-0.8,0.3 -1.6,0.6 -2.4,0.8c-1,0.2 -1.8,0.2 -2.5,0.3" class="st0"/>
   <path id="svg_6" d="m49.5679,36c-0.9,-0.1 -1.9,-0.3 -2.8,-0.4c-1.4,-0.2 -2.6,-0.8 -3.8,-1.3c-0.4,-0.1 -0.5,-0.4 -0.5,-0.8c0,-0.4 0,-0.8 0,-1.2c0,-0.3 0.1,-0.4 0.4,-0.3c0.8,0.3 1.6,0.7 2.4,1c2,0.7 4.1,1.2 6.3,0.6c0.8,-0.2 1.7,-0.5 2.5,-0.8c0.2,-0.1 0.3,-0.2 0.4,-0.2s0.2,-0.1 0.3,-0.1c0.1,0 0.1,0.2 0.1,0.3c0,0.5 0,1 0,1.5c0,0.3 -0.1,0.5 -0.4,0.5c-0.5,0.2 -1,0.5 -1.6,0.6c-1.1,0.2 -2.3,0.6 -3.5,0.4c0.2,0.1 0.2,0.1 0.2,0.2" class="st0"/>
   <path id="svg_7" d="m2.6679,25.3l-0.2,16.8c-1.6,39.4 32.1,56.3 32.1,56.3l0.9,0c0,0 33.7,-16.8 32.1,-56.3l-0.2,-20.1l-64.7,0l0,3.3z" class="st1"/>
  </g>
  <g stroke="null" id="svg_8">
   <path stroke="null" id="svg_9" d="m1.27191,2.36348l8.0004,0l0,1.97657l-5.64734,0l0,4.14138l5.27085,0l0,1.97657l-5.27085,0l0,4.70612l5.83558,0l0,1.97657l-8.18864,0l0,-14.7772z" class="st2"/>
   <path stroke="null" id="svg_10" d="m11.71949,2.36348l2.91779,0l4.2355,11.01231l0,0l0,-11.01231l2.25894,0l0,14.7772l-2.91779,0l-4.32963,-11.29468l0,0l0,11.29468l-2.25894,0l0.09412,-14.7772l0,0z" class="st2"/>
   <path stroke="null" id="svg_11" d="m25.74371,13.09342c0,1.31771 0.37649,2.72955 1.97657,2.72955c1.50596,0 2.07069,-1.22359 2.07069,-2.63542c0,-1.78832 -0.56473,-2.72955 -2.35306,-2.72955l-0.94122,0l0,-1.6942l0.8471,0c1.60008,0 2.07069,-1.03535 2.07069,-2.5413c0,-1.03535 -0.47061,-2.07069 -1.6942,-2.07069c-1.41183,0 -1.88245,1.22359 -1.88245,2.5413l-2.25894,0c0,-2.72955 1.41183,-4.2355 4.2355,-4.2355c1.78832,0 3.95314,0.8471 3.95314,3.76489c0,1.50596 -0.8471,3.01191 -2.35306,3.20016l0,0.09412c1.50596,0.09412 2.63542,1.31771 2.63542,3.3884c0,2.91779 -1.41183,4.51787 -4.51787,4.51787c-2.63542,0 -4.14138,-1.31771 -4.14138,-4.32963c0,0 2.35306,0 2.35306,0z" class="st2"/>
   <path stroke="null" id="svg_12" d="m33.93235,2.83409l8.65925,0l0,1.88245c-2.25894,3.01191 -4.32963,8.09452 -4.61199,12.51827l-2.44718,0c0.37649,-4.32963 2.44718,-9.22399 4.80024,-12.2359l-6.40032,0l0,-2.16481z" class="st2"/>
   <path stroke="null" id="svg_13" d="m44.19168,11.86983l5.0826,-9.31811l2.44718,0l0,9.50635l1.60008,0l0,1.88245l-1.60008,0l0,3.29428l-2.25894,0l0,-3.29428l-5.27085,0l0,-2.07069zm5.27085,-5.92971l0,0l-3.29428,6.11795l3.29428,0l0,-6.11795z" class="st2"/>
   <path stroke="null" id="svg_14" d="m55.20399,10.17563l5.45909,0l0,2.07069l-5.45909,0l0,-2.07069z" class="st2"/>
   <path stroke="null" id="svg_15" d="m66.31043,17.23481l0,-10.72994l-3.01191,0l0,-1.50596l0.18824,0c1.41183,0 3.01191,-0.37649 3.48253,-2.16481l0,-0.28237l1.6942,0l0,14.68308l-2.35306,0z" class="st2"/>
  </g>
  <text font-weight="bold" xml:space="preserve" text-anchor="start" font-family="sans-serif" font-size="18" id="svg_16" y="116" x="14" stroke-width="0" fill="#272525">AJKL</text>
 </g>
</svg>
